<svg width="35" height="44" viewBox="0 0 35 44" fill="none" xmlns="http://www.w3.org/2000/svg">
<path d="M25.7606 0C25.8605 0 25.9604 0 26.066 0C26.3111 3.10297 25.1555 5.42151 23.751 7.10051C22.373 8.76793 20.4859 10.3851 17.4338 10.1397C17.2302 7.08119 18.3877 4.93462 19.7903 3.25947C21.091 1.69833 23.4758 0.309138 25.7606 0Z" fill="white"/>
<path d="M35 32.2972C35 32.3281 35 32.3552 35 32.3841C34.1423 35.0466 32.9188 37.3284 31.4257 39.446C30.0627 41.3685 28.3925 43.9556 25.4102 43.9556C22.8331 43.9556 21.1214 42.2572 18.4803 42.2109C15.6865 42.1645 14.1501 43.631 11.5957 44C11.3035 44 11.0113 44 10.7247 44C8.84897 43.7218 7.33518 42.1993 6.23236 40.8275C2.98045 36.7739 0.467521 31.5379 0 24.8373C0 24.1804 0 23.5254 0 22.8685C0.197942 18.073 2.47145 14.174 5.49337 12.2844C7.08823 11.2797 9.28067 10.4237 11.722 10.8063C12.7682 10.9725 13.8371 11.3396 14.774 11.7028C15.662 12.0525 16.7723 12.6727 17.8242 12.6399C18.5368 12.6186 19.2457 12.238 19.9639 11.9694C22.0678 11.1908 24.1301 10.2982 26.8485 10.7174C30.1155 11.2236 32.4343 12.7114 33.867 15.0067C31.1034 16.8094 28.9185 19.5259 29.2917 24.1649C29.6235 28.3789 32.0139 30.8442 35 32.2972Z" fill="white"/>
</svg>
