<svg width="64" height="64" viewBox="0 0 64 64" fill="none" xmlns="http://www.w3.org/2000/svg">
<g filter="url(#filter0_f_3626_13577)">
<path d="M16.4271 44.1747L15 43.3807C16.7374 39.044 19.0332 34.1577 24.3695 32.6918C24.1213 28.4773 23.9972 24.7514 23.9351 20.7202C23.811 15.5895 20.1501 16.8111 20.1501 12.5966C20.1501 9.78693 21.7634 8.25994 24.6797 6L26.0448 6.91619C25.1761 7.77131 24.8038 8.56534 24.8038 9.23721C24.8038 12.4134 32.56 11.2528 32.7462 16.9332C35.5384 16.017 38.3927 14.7955 41.1849 13.3295H42.6741C47.514 15.0398 49.4375 19.3153 49.4375 22.125V29.027C49.4375 33.608 47.2658 35.9901 43.853 38.25C41.7434 39.6548 38.0204 41.7926 36.1589 44.1747H34.6077C34.2974 43.8693 33.3046 42.7699 31.5052 41.7926C31.0088 46.8622 30.5124 51.9318 29.9539 57.0625H26.231C25.6725 50.2827 25.2382 44.9077 24.8659 40.3267C21.205 40.3878 19.0953 41.7315 16.4271 44.1747ZM32.1877 32.7528C35.6005 33.7301 38.2686 35.7457 39.9439 37.7614C40.3162 36.9062 40.5644 34.8295 40.5644 32.875V24.6903C40.5644 20.8423 37.1517 18.9489 36.0968 18.3381C34.8559 18.8267 33.801 19.1932 32.7462 19.5597C32.6841 23.9574 32.498 28.3551 32.1877 32.7528Z" fill="white"/>
</g>
<defs>
<filter id="filter0_f_3626_13577" x="10.62" y="1.62" width="43.1975" height="59.8225" filterUnits="userSpaceOnUse" color-interpolation-filters="sRGB">
<feFlood flood-opacity="0" result="BackgroundImageFix"/>
<feBlend mode="normal" in="SourceGraphic" in2="BackgroundImageFix" result="shape"/>
<feGaussianBlur stdDeviation="2.19" result="effect1_foregroundBlur_3626_13577"/>
</filter>
</defs>
</svg>
